<svg width="24" height="25" viewBox="0 0 24 25" fill="none" xmlns="http://www.w3.org/2000/svg">
<path fill-rule="evenodd" clip-rule="evenodd" d="M15.9502 9.28147L15.9473 9.27643L13.0131 4.09494C12.9151 3.91538 12.7683 3.76508 12.5885 3.66024C12.4087 3.55541 12.2027 3.5 11.9928 3.5C11.7828 3.5 11.5768 3.55541 11.397 3.66024C11.2172 3.76508 11.0704 3.91538 10.9725 4.09494C9.85624 6.06633 8.73966 8.03772 7.62307 10.0091L7.61494 10.0235L7.61411 10.0249C5.79508 13.2365 3.97605 16.4481 2.15858 19.6598C1.70396 20.4611 2.28342 21.5 3.17795 21.5H20.8088C21.3044 21.5 21.6374 21.2419 21.811 20.8919C22.0294 20.5585 22.0879 20.116 21.8282 19.6591L21.827 19.6598C19.8684 16.2003 17.9093 12.7409 15.9502 9.28147ZM11.2714 15.0233L11.0588 12.4923C11.0191 11.9993 11 11.6451 11 11.4302C11 11.1374 11.0956 10.9098 11.2874 10.7454C11.4799 10.5821 11.7329 10.5 12.0466 10.5C12.4252 10.5 12.6793 10.6052 12.8066 10.8141C12.935 11.0244 13 11.3264 13 11.7209C13 11.9527 12.9842 12.189 12.9527 12.4285L12.6681 15.0334C12.6373 15.3437 12.5715 15.5815 12.4704 15.747C12.3685 15.9132 12.2006 15.9953 11.966 15.9953C11.7288 15.9953 11.5619 15.9153 11.4706 15.7554C11.3766 15.5949 11.3109 15.3508 11.2714 15.0233ZM12 18.5C12.5523 18.5 13 18.0523 13 17.5C13 16.9477 12.5523 16.5 12 16.5C11.4477 16.5 11 16.9477 11 17.5C11 18.0523 11.4477 18.5 12 18.5Z" fill="white"/>
</svg>
